<svg xmlns="http://www.w3.org/2000/svg" width="136" height="109" style=""><rect id="backgroundrect" width="100%" height="100%" x="0" y="0" fill="none" stroke="none"/>

<g class="currentLayer" style=""><title>Layer 1</title><path d="M136.36900080108643,97.73300034332276 c0,6.25 -5.113,11.364 -11.363,11.364 H11.363000801086425 c-6.25,0 -11.363,-5.113 -11.363,-11.364 v-86.37 c0,-6.25 5.113,-11.363 11.363,-11.363 h113.643 c6.25,0 11.363,5.113 11.363,11.363 V97.73300034332276 zM11.363000801086425,9.091000343322754 c-1.207,0 -2.271,1.068 -2.271,2.271 v86.37 c0,1.207 1.065,2.271 2.271,2.271 h113.643 c1.203,0 2.274,-1.064 2.274,-2.271 v-86.37 c0,-1.203 -1.071,-2.271 -2.274,-2.271 H11.363000801086425 zM31.821000801086427,45.456000343322756 c-7.529,0 -13.641,-6.108 -13.641,-13.635 s6.112,-13.638 13.641,-13.638 c7.526,0 13.632,6.111 13.632,13.638 S39.34800080108643,45.456000343322756 31.821000801086427,45.456000343322756 zM118.18500080108643,90.91500034332276 H18.180000801086425 V77.27500034332276 l22.73,-22.724 l11.363,11.36 l36.365,-36.361 l29.547,29.547 V90.91500034332276 z" id="svg_1" class="" fill-opacity="1" fill="#5d986b"/></g></svg>