<?xml version="1.0" encoding="UTF-8"?>
<svg xmlns="http://www.w3.org/2000/svg" xmlns:xlink="http://www.w3.org/1999/xlink" width="20px" height="20px" viewBox="0 0 20 20" version="1.1">
<g id="surface1">
<rect x="0" y="0" width="20" height="20" style="fill:rgb(99.607843%,99.607843%,99.607843%);fill-opacity:1;stroke:none;"/>
<path style="fill:none;stroke-width:1;stroke-linecap:round;stroke-linejoin:round;stroke:rgb(45.098039%,70.980392%,38.823529%);stroke-opacity:1;stroke-miterlimit:4;" d="M 12.097656 1.238281 L 12.933594 1.238281 L 13.773438 1.535156 L 14.3125 1.945313 L 14.671875 2.535156 L 14.851563 3.246094 L 14.851563 4.484375 L 14.609375 5.425781 L 14.3125 6.136719 L 14.011719 6.667969 L 13.953125 6.902344 L 17.484375 6.960938 L 18.324219 7.375 L 18.621094 7.609375 L 19.042969 8.199219 L 19.222656 8.671875 L 19.222656 9.558594 L 18.921875 10.324219 L 18.683594 10.679688 L 18.742188 11.269531 L 18.742188 12.09375 L 18.621094 12.566406 L 18.382813 13.039063 L 18.324219 14.394531 L 17.964844 15.222656 L 17.722656 15.457031 L 17.664063 16.519531 L 17.1875 17.464844 L 16.765625 17.875 L 16.109375 18.230469 L 15.210938 18.40625 L 12.457031 18.40625 L 11.136719 18.171875 L 10.058594 17.875 L 8.324219 17.285156 L 7.484375 17.050781 L 6.886719 16.933594 L 6.585938 16.636719 L 6.46875 16.402344 L 6.46875 8.96875 L 6.648438 8.613281 L 6.886719 8.4375 L 7.542969 8.199219 L 8.144531 7.609375 L 8.683594 6.960938 L 9.460938 6.019531 L 9.941406 5.425781 L 10.480469 4.835938 L 10.71875 4.367188 L 10.957031 3.539063 L 11.199219 2.417969 L 11.617188 1.59375 L 11.976563 1.296875 Z M 12.097656 1.238281 " transform="matrix(1,0,0,1,-0.000000000000000444,0)"/>
<path style="fill:none;stroke-width:1;stroke-linecap:round;stroke-linejoin:round;stroke:rgb(45.098039%,70.980392%,38.823529%);stroke-opacity:1;stroke-miterlimit:4;" d="M 1.554688 8.378906 L 4.65625 8.378906 L 5.089844 8.613281 L 5.25 8.96875 L 5.25 16.519531 L 4.980469 16.875 L 4.820313 16.992188 L 1.554688 16.992188 L 1.179688 16.753906 L 1.019531 16.34375 L 1.019531 8.96875 L 1.234375 8.554688 Z M 1.554688 8.378906 " transform="matrix(1,0,0,1,-0.000000000000000444,0)"/>
<path style="fill:none;stroke-width:0.5;stroke-linecap:round;stroke-linejoin:round;stroke:rgb(45.098039%,70.980392%,38.823529%);stroke-opacity:1;stroke-miterlimit:4;" d="M 2.933594 14.160156 L 3.472656 14.160156 L 3.773438 14.335938 L 3.953125 14.632813 L 3.953125 15.042969 L 3.652344 15.457031 L 3.53125 15.515625 L 2.875 15.515625 L 2.574219 15.222656 L 2.515625 15.101563 L 2.515625 14.574219 L 2.8125 14.21875 Z M 2.933594 14.160156 " transform="matrix(1,0,0,1,-0.000000000000000444,0)"/>
</g>
</svg>
