<?xml version="1.0" encoding="utf-8"?>
<svg viewBox="0 0 20 20" xmlns="http://www.w3.org/2000/svg">
  <g id="surface1" transform="matrix(0.9999999999999999, 0, 0, 0.9999999999999999, -4.440892098500626e-16, 0)">
    <rect x="0" y="0" width="20" height="20" style="fill:rgb(99.607843%,99.607843%,99.607843%);fill-opacity:1;stroke:none;"/>
    <path style="fill-rule: nonzero; fill-opacity: 1; paint-order: fill; stroke-width: 0.3px; stroke: rgb(115, 181, 99); fill: rgba(115, 181, 99, 0); stroke-linejoin: round; stroke-linecap: round;" d="M 12.097656 1.238281 L 12.933594 1.238281 L 13.773438 1.535156 L 14.3125 1.945312 L 14.671875 2.535156 L 14.851562 3.246094 L 14.851562 4.484375 L 14.609375 5.425781 L 14.3125 6.136719 L 14.011719 6.667969 L 13.953125 6.902344 L 17.484375 6.960938 L 18.324219 7.375 L 18.621094 7.609375 L 19.042969 8.199219 L 19.222656 8.671875 L 19.222656 9.558594 L 18.921875 10.324219 L 18.683594 10.679688 L 18.742188 11.269531 L 18.742188 12.09375 L 18.621094 12.566406 L 18.382812 13.039062 L 18.324219 14.394531 L 17.964844 15.222656 L 17.722656 15.457031 L 17.664062 16.519531 L 17.1875 17.464844 L 16.765625 17.875 L 16.109375 18.230469 L 15.210938 18.40625 L 12.457031 18.40625 L 11.136719 18.171875 L 10.058594 17.875 L 8.324219 17.285156 L 7.484375 17.050781 L 6.886719 16.933594 L 6.585938 16.636719 L 6.46875 16.402344 L 6.46875 8.96875 L 6.648438 8.613281 L 6.886719 8.4375 L 7.542969 8.199219 L 8.144531 7.609375 L 8.683594 6.960938 L 9.460938 6.019531 L 9.941406 5.425781 L 10.480469 4.835938 L 10.71875 4.367188 L 10.957031 3.539062 L 11.199219 2.417969 L 11.617188 1.59375 L 11.976562 1.296875 Z M 12.097656 1.238281 "/>
    <path style="fill-rule: nonzero; fill-opacity: 1; fill: rgba(115, 181, 100, 0); stroke: rgb(115, 181, 99); stroke-width: 0.3px; stroke-linejoin: round; stroke-linecap: round;" d="M 1.617188 8.378906 L 5.089844 8.378906 L 5.570312 8.613281 L 5.75 8.96875 L 5.75 16.519531 L 5.449219 16.875 L 5.269531 16.992188 L 1.617188 16.992188 L 1.199219 16.753906 L 1.019531 16.34375 L 1.019531 8.96875 L 1.257812 8.554688 Z M 1.617188 8.378906 "/>
    <path style="fill-rule: nonzero; fill-opacity: 1; fill: rgba(251, 253, 251, 0); stroke: rgb(115, 181, 99); stroke-width: 0.3px; stroke-linecap: round; stroke-linejoin: round;" d="M 2.933594 14.160156 L 3.472656 14.160156 L 3.773438 14.335938 L 3.953125 14.632812 L 3.953125 15.042969 L 3.652344 15.457031 L 3.53125 15.515625 L 2.875 15.515625 L 2.574219 15.222656 L 2.515625 15.101562 L 2.515625 14.574219 L 2.8125 14.21875 Z M 2.933594 14.160156 "/>
  </g>
</svg>