<svg xmlns="http://www.w3.org/2000/svg" xmlns:xlink="http://www.w3.org/1999/xlink" version="1.1" enable-background="new 0 0 100 100" xml:space="preserve" width="94" height="94"><rect id="backgroundrect" width="100%" height="100%" x="0" y="0" fill="none" stroke="none" style="" class=""/><g class="currentLayer" style=""><title>Layer 1</title><path d="M46.83499976587296,8.881784197001252e-16 c-25.826,0 -46.835,21.009 -46.835,46.841 c0,25.826 21.009,46.835 46.835,46.835 c25.826,0 46.83,-21.009 46.83,-46.835 C93.66499976587295,21.009 72.66099976587296,8.881784197001252e-16 46.83499976587296,8.881784197001252e-16 zM46.83499976587296,83.709 c-20.36,0 -36.875,-16.508 -36.875,-36.868 c0,-20.369 16.515,-36.874 36.875,-36.874 c20.361,0 36.873,16.505 36.873,36.874 C83.70799976587296,67.201 67.19599976587295,83.709 46.83499976587296,83.709 z" id="svg_1" class="" fill-opacity="1" fill="#4a90d6"/><path d="M37.39599976587296,31.478 c-0.8290000000000002,-0.8330000000000002 -2.949,-0.8330000000000002 -2.949,0 v33.845 c0,0.8340000000000002 2.125,0.8340000000000002 2.957,0 l27.781,-15.417 c0.8320000000000002,-0.8290000000000002 0.8460000000000002,-2.178 0.016000000000000007,-3.01 L37.39599976587296,31.478 z" id="svg_2" class="" fill-opacity="1" fill="#4a90d6"/></g></svg>